<?xml version="1.0" encoding="UTF-8"?>
<svg id="Layer_1" viewBox="0 0 1150 1150" xmlns="http://www.w3.org/2000/svg">
    <path fill="#01A601" d="m918.68 656.25c-113.66 0-206.18 92.551-206.18 206.25 0 113.7 92.52 206.25 206.18 206.25 113.66 0 206.32-92.555 206.32-206.25s-92.664-206.25-206.32-206.25zm0 37.5c93.398 0 168.82 75.32 168.82 168.75s-75.426 168.71-168.82 168.71c-93.398 0-168.68-75.285-168.68-168.71s75.277-168.75 168.68-168.75zm99.684 98.293c-4.8594 0.15234-9.4688 2.1875-12.855 5.6758l-116.82 116.82-69.215-69.066c-3.3984-3.9688-8.2969-6.3359-13.52-6.5391-5.2188-0.20312-10.285 1.7852-13.98 5.4766-3.6953 3.6953-5.6797 8.7617-5.4766 13.984 0.19922 5.2188 2.5703 10.117 6.5352 13.52l82.363 82.508v-0.003906c3.5195 3.5391 8.3047 5.5273 13.293 5.5273s9.7734-1.9883 13.293-5.5273l130.11-130.11c3.6836-3.5352 5.7656-8.418 5.7656-13.52 0-5.1055-2.0781-9.9883-5.7578-13.523-3.6797-3.5391-8.6406-5.4219-13.738-5.2188z"/>
    <path fill="#01A601" d="m93.82 131.25c-10.355-0.039063-18.781 8.3203-18.824 18.676v712.5c-0.039063 10.414 8.4102 18.863 18.824 18.824l562.43 0.070312c10.355 0 18.75-8.3945 18.75-18.75 0-10.355-8.3945-18.75-18.75-18.75l-543.75-0.070312v-675h975v510.54c-0.003906 4.9727 1.9727 9.7422 5.4883 13.258 3.5195 3.5156 8.2852 5.4922 13.262 5.4922 4.9727 0 9.7383-1.9766 13.258-5.4922 3.5156-3.5156 5.4922-8.2852 5.4922-13.258v-529.36c-0.039062-10.355-8.4688-18.719-18.824-18.676z"/>
    <path fill="#01A601" d="m655.15 675.07c-24.984 1.2969-23.043 38.758 1.9414 37.461l60.973 0.039062c4.9766 0 9.7422-1.9766 13.262-5.4922 3.5156-3.5156 5.4883-8.2852 5.4883-13.258 0-4.9727-1.9727-9.7422-5.4883-13.258-3.5195-3.5156-8.2852-5.4922-13.262-5.4922h-60.973c-0.64844-0.039062-1.293-0.039062-1.9414 0z"/>
    <path fill="#01A601" d="m655.15 487.53c-6.6719 0.375-12.637 4.2695-15.668 10.223-3.0273 5.9531-2.6602 13.066 0.96484 18.676 3.625 5.6094 9.9648 8.8672 16.637 8.5508h336.6c4.9844 0.023437 9.7695-1.9414 13.301-5.4531 3.5312-3.5156 5.5156-8.2891 5.5156-13.27 0-4.9805-1.9844-9.7578-5.5156-13.27-3.5312-3.5156-8.3164-5.4805-13.301-5.457h-336.6c-0.64453-0.035156-1.2891-0.035156-1.9336 0z"/>
    <path fill="#01A601" d="m656.28 299.93c-6.7109 0-12.91 3.5742-16.262 9.375-3.3555 5.8047-3.3555 12.949 0 18.75 3.3516 5.8047 9.5508 9.375 16.262 9.375h337.45-0.003906c6.7109 0 12.91-3.5703 16.266-9.375 3.3516-5.8008 3.3516-12.945 0-18.75-3.3555-5.8008-9.5547-9.375-16.266-9.375z"/>
    <path fill="#01A601" d="m375.12 281.15c-51.578 0-93.75 42.172-93.75 93.75 0 51.578 42.172 93.75 93.75 93.75s93.75-42.168 93.75-93.75c0-51.578-42.168-93.75-93.75-93.75zm0 37.527c31.305 0 56.223 24.918 56.223 56.223 0 31.305-24.918 56.223-56.223 56.223-31.305 0-56.359-24.918-56.359-56.223 0-31.305 25.059-56.223 56.359-56.223z"/>
    <path fill="#01A601" d="m375.03 506.21c-103.52 0-187.5 83.977-187.5 187.5v18.68c-0.019531 4.9961 1.957 9.793 5.4922 13.328 3.5312 3.5312 8.3281 5.5078 13.328 5.4922h337.36-0.003906c4.9961 0.015625 9.7969-1.9609 13.328-5.4922 3.5352-3.5352 5.5117-8.332 5.4922-13.328v-18.68c0-103.53-83.973-187.5-187.5-187.5zm0 37.5c83.402 0 150 66.598 150 150h-300c0-83.402 66.598-150 150-150z"/>
</svg>
