<?xml version="1.0" encoding="UTF-8"?>
<svg id="OneView" viewBox="0 0 1200 1200" xmlns="http://www.w3.org/2000/svg">
    <g>
        <path fill="#01A601"
            d="m268.1 414.66c0 7.7656 6.2969 14.062 14.062 14.062h574.78c7.7656 0 14.062-6.2969 14.062-14.062s-6.2969-14.062-14.062-14.062h-574.78c-7.7656 0-14.062 6.2969-14.062 14.062z" />
        <path fill="#01A601"
            d="m282.16 513.94h574.78c7.7656 0 14.062-6.2969 14.062-14.062s-6.2969-14.062-14.062-14.062h-574.78c-7.7656 0-14.062 6.2969-14.062 14.062s6.2969 14.062 14.062 14.062z" />
        <path fill="#01A601"
            d="m414.59 214.99c-4.418 0.007812-8.6523 1.7539-11.785 4.8672-3.1328 3.1094-4.9141 7.3359-4.9492 11.75l-0.14062 27.141h-17.016c-4.9727 0-9.7422 1.9766-13.258 5.4922-3.5156 3.5156-5.4922 8.2852-5.4922 13.258v61.734c0 4.9727 1.9766 9.7422 5.4922 13.258 3.5156 3.5156 8.2852 5.4922 13.258 5.4922h62.016c4.9727 0 9.7422-1.9766 13.258-5.4922 3.5156-3.5156 5.4922-8.2852 5.4922-13.258v-61.734c0-4.9727-1.9766-9.7422-5.4922-13.258-3.5156-3.5156-8.2852-5.4922-13.258-5.4922h-16.875v-15.633h120.96v15.633h-16.945c-4.9727 0-9.7422 1.9766-13.258 5.4922-3.5156 3.5156-5.4922 8.2852-5.4922 13.258v61.734c0 4.9727 1.9766 9.7422 5.4922 13.258 3.5156 3.5156 8.2852 5.4922 13.258 5.4922h62.016c4.9727 0 9.7422-1.9766 13.258-5.4922 3.5156-3.5156 5.4922-8.2852 5.4922-13.258v-61.734c0-4.9727-1.9766-9.7422-5.4922-13.258-3.5156-3.5156-8.2852-5.4922-13.258-5.4922h-16.945v-15.633h122.7v15.633h-18.516c-4.9727 0-9.7422 1.9766-13.258 5.4922-3.5156 3.5156-5.4922 8.2852-5.4922 13.258v61.734c0 4.9727 1.9766 9.7422 5.4922 13.258 3.5156 3.5156 8.2852 5.4922 13.258 5.4922h62.016c4.9727 0 9.7422-1.9766 13.258-5.4922 3.5156-3.5156 5.4922-8.2852 5.4922-13.258v-61.734c0-4.9727-1.9766-9.7422-5.4922-13.258-3.5156-3.5156-8.2852-5.4922-13.258-5.4922h-15.375v-27.047c-0.007813-4.4336-1.7734-8.6836-4.9102-11.816-3.1367-3.1328-7.3906-4.8945-11.824-4.8945h-133.99v-19.875h16.945c4.9727 0 9.7422-1.9766 13.258-5.4922s5.4922-8.2852 5.4922-13.258v-61.734c0-4.9727-1.9766-9.7422-5.4922-13.258s-8.2852-5.4922-13.258-5.4922h-62.016c-4.9727 0-9.7422 1.9766-13.258 5.4922s-5.4922 8.2852-5.4922 13.258v61.734c0 4.9727 1.9766 9.7422 5.4922 13.258s8.2852 5.4922 13.258 5.4922h16.945v19.875zm18.75 114.84h-43.266v-42.961h43.266zm149.25 0h-43.266v-42.961h43.266zm149.25 0h-43.266v-42.961h43.266zm-192.52-205.83h43.266v42.984h-43.266z" />
        <path fill="#01A601"
            d="m801.56 802.78c-27.621 0.11719-54.07 11.195-73.531 30.797-19.465 19.602-30.352 46.125-30.273 73.75 0.078126 27.621 11.117 54.086 30.691 73.574 19.574 19.492 46.082 30.418 73.707 30.379 27.621-0.039062 54.102-11.039 73.621-30.586 19.516-19.547 30.48-46.043 30.48-73.664-0.082031-27.703-11.152-54.238-30.781-73.785-19.629-19.547-46.211-30.504-73.914-30.465zm0 180.47c-20.156-0.11719-39.445-8.2266-53.633-22.547s-22.117-33.684-22.047-53.844c0.070313-20.156 8.1328-39.465 22.422-53.684 14.285-14.223 33.629-22.195 53.789-22.176 20.156 0.023438 39.484 8.043 53.738 22.293 14.258 14.254 22.277 33.578 22.301 53.738-0.074218 20.242-8.1797 39.629-22.535 53.902-14.355 14.273-33.793 22.266-54.035 22.223z" />
        <path fill="#01A601"
            d="m989.25 865.08h-18.164c-4.0938-16.672-10.676-32.633-19.523-47.344l12.75-12.68c3.2734-3.2617 5.1133-7.6953 5.1133-12.316 0-4.6211-1.8398-9.0547-5.1133-12.316l-34.875-34.641v-666.54c-0.042969-14.82-5.9609-29.016-16.461-39.477-10.496-10.465-24.711-16.336-39.531-16.328h-624.09c-14.82-0.007812-29.035 5.8633-39.531 16.328-10.5 10.461-16.418 24.656-16.461 39.477v935.16c0.039063 14.824 5.9531 29.027 16.449 39.492 10.5 10.469 24.719 16.344 39.543 16.336h4.4531v82.828c0 4.9727 1.9766 9.7422 5.4922 13.258s8.2852 5.4922 13.258 5.4922h134.44c4.9727 0 9.7422-1.9766 13.258-5.4922s5.4922-8.2852 5.4922-13.258v-528.21c0-4.9727-1.9766-9.7422-5.4922-13.258-3.5156-3.5156-8.2852-5.4922-13.258-5.4922h-134.44c-4.9727 0-9.7422 1.9766-13.258 5.4922-3.5156 3.5156-5.4922 8.2852-5.4922 13.258v417.19h-4.4531c-7.375 0.019531-14.457-2.8945-19.684-8.1016-5.2266-5.2031-8.1719-12.273-8.1836-19.648v-935.04c0.03125-7.3633 2.9844-14.414 8.207-19.605 5.2266-5.1875 12.297-8.0938 19.66-8.0742h624.09c7.3633-0.019531 14.434 2.8867 19.66 8.0742 5.2227 5.1914 8.1758 12.242 8.207 19.605v669.12l-9.6562 9.6094c-14.812-8.918-30.883-15.559-47.672-19.688v-17.812c-0.007813-4.6094-1.8398-9.0312-5.1016-12.289-3.2578-3.2617-7.6797-5.0938-12.289-5.1016h-49.898c-4.6094 0.007813-9.0312 1.8398-12.289 5.1016-3.2617 3.2578-5.0938 7.6797-5.1016 12.289v17.812c-16.777 4.1602-32.836 10.805-47.648 19.711l-12.75-12.68c-3.2578-3.2461-7.6719-5.0664-12.27-5.0664-4.5977 0-9.0117 1.8203-12.27 5.0664l-35.297 35.156c-3.2734 3.2617-5.1133 7.6953-5.1133 12.316s1.8398 9.0547 5.1133 12.316l12.75 12.68c-8.8711 14.711-15.484 30.668-19.617 47.344h-18.141c-4.6133-0.007812-9.0391 1.8203-12.305 5.0781-3.2656 3.2578-5.1016 7.6758-5.1094 12.289v49.688c0.007812 4.6133 1.8438 9.0391 5.1094 12.297 3.2656 3.2617 7.6914 5.0938 12.305 5.0938h18.258c4.1836 16.602 10.816 32.488 19.688 47.133l-12.938 12.891c-3.2734 3.2578-5.1094 7.6875-5.1094 12.305 0 4.6172 1.8359 9.0469 5.1094 12.305l7.8516 7.8281h-63.492l-4.9688-279.45-48.352-119.81-0.49219-1.0781c-1.418-2.8281-3.5977-5.2031-6.293-6.8594-2.6953-1.6562-5.8008-2.5273-8.9648-2.5156-3.1289 0.007813-6.1953 0.88672-8.8477 2.543-2.6562 1.6562-4.793 4.0234-6.1758 6.832l-0.30469 0.63281-44.531 118.62c-0.89453 2.1367-1.3438 4.4336-1.3125 6.75l6.5156 389.34c0.082031 5.1602 2.1641 10.082 5.8086 13.738 3.6406 3.6523 8.5586 5.7539 13.715 5.8555h86.719c4.7148 0.042969 9.2539-1.7773 12.633-5.0625 6.2109-6.0703 7.0312-15.445 7.0312-24l-1.3594-77.344h91.406c3.3242 2.8672 7.6094 4.3789 11.996 4.2266 4.3906-0.15234 8.5586-1.9531 11.676-5.0469l13.055-13.008c14.617 8.75 30.457 15.281 46.992 19.383v18.352c0.007812 4.6094 1.8398 9.0273 5.1016 12.281 3.2617 3.2578 7.6797 5.0859 12.289 5.0859h49.898c4.6094 0 9.0273-1.8281 12.289-5.0859 3.2617-3.2539 5.0938-7.6719 5.1016-12.281v-18.352c16.66-4.1094 32.609-10.691 47.32-19.523l13.078 13.008c3.2656 3.2422 7.6797 5.0586 12.281 5.0586s9.0156-1.8164 12.281-5.0586l35.156-35.156c3.2734-3.2578 5.1094-7.6875 5.1094-12.305 0-4.6172-1.8359-9.0469-5.1094-12.305l-12.938-12.891c8.8789-14.641 15.516-30.527 19.688-47.133h18.281c4.6094-0.007812 9.0312-1.8398 12.289-5.1016 3.2617-3.2578 5.0938-7.6797 5.1016-12.289v-49.688c-0.019531-4.5938-1.8516-8.9922-5.1016-12.234-3.25-3.2461-7.6484-5.0742-12.242-5.0859zm-591.63-230.86v509.34h-115.69v-19.289h62.156c7.7656 0 14.062-6.2969 14.062-14.062 0-7.7656-6.2969-14.062-14.062-14.062h-62.156v-57.562h32.508c7.7656 0 14.062-6.2969 14.062-14.062 0-7.7656-6.2969-14.062-14.062-14.062h-32.508v-57.586h62.156c7.7656 0 14.062-6.2969 14.062-14.062s-6.2969-14.062-14.062-14.062h-62.156v-57.562h32.508c7.7656 0 14.062-6.2969 14.062-14.062s-6.2969-14.062-14.062-14.062h-32.508v-57.609h62.156c7.7656 0 14.062-6.2969 14.062-14.062s-6.2969-14.062-14.062-14.062h-62.156v-57.562h32.508c7.7656 0 14.062-6.2969 14.062-14.062s-6.2969-14.062-14.062-14.062h-32.508v-33.422zm98.836 94.688 1.4531 0.30469c6.0586 1.125 12.211 1.6992 18.375 1.7109 6.1602-0.011719 12.301-0.60156 18.352-1.7578l9.0469 22.406-55.922 0.44531zm18.375-48.844 9 22.312c-5.7539 0.61719-11.562 0.53125-17.297-0.25781zm42.352 468.38h-69.68l-6.1641-368.3 69.258-0.5625 6.5391 368.23c0.027344 0.21094 0.042969 0.42187 0.046876 0.63281zm421.34-227.04h-16.148c-4.0273 0.011718-7.9297 1.418-11.035 3.9844-3.1055 2.5625-5.2305 6.125-6.0039 10.078-3.7578 18.969-11.289 36.992-22.148 52.992-2.2734 3.3477-3.3047 7.3828-2.918 11.406 0.38281 4.0273 2.1641 7.793 5.0273 10.648l11.438 11.391-20.062 19.992-11.578-11.531c-2.8516-2.832-6.5977-4.5938-10.602-4.9805-4-0.39062-8.0156 0.61719-11.359 2.8477-16.082 10.793-34.164 18.25-53.18 21.938-3.9531 0.78125-7.5156 2.9062-10.082 6.0156-2.5625 3.1133-3.9688 7.0156-3.9805 11.047v16.219h-28.383v-16.219c-0.007812-4.0312-1.4102-7.9375-3.9766-11.051-2.5625-3.1094-6.1289-5.2344-10.086-6.0117-19.012-3.6914-37.094-11.148-53.18-21.938-3.3477-2.2266-7.3594-3.2305-11.359-2.8438-4 0.39063-7.7461 2.1484-10.602 4.9766l-11.578 11.484-20.156-19.969 11.461-11.391c2.8516-2.8633 4.6211-6.625 5.0078-10.648 0.38281-4.0234-0.64062-8.0547-2.8984-11.406-10.871-15.996-18.402-34.02-22.148-52.992-0.78516-3.9531-2.9102-7.5117-6.0234-10.074-3.1094-2.5664-7.0078-3.9727-11.039-3.9883h-16.148v-28.125h16.055c4.0312-0.011719 7.9336-1.418 11.047-3.9805 3.1094-2.5664 5.2344-6.1289 6.0156-10.082 3.6914-19.031 11.191-37.121 22.055-53.18 2.2461-3.3477 3.2617-7.3711 2.875-11.387-0.39062-4.0117-2.1602-7.7656-5.0078-10.621l-11.25-11.203 20.062-19.969 11.273 11.203c2.8594 2.8359 6.6094 4.5938 10.617 4.9805 4.0039 0.38281 8.0234-0.63281 11.367-2.8711 16.184-10.891 34.398-18.398 53.555-22.078 3.957-0.77734 7.5234-2.9023 10.086-6.0117 2.5664-3.1133 3.9688-7.0195 3.9766-11.051v-15.75h28.359v15.703c0.011719 4.0312 1.418 7.9336 3.9805 11.047 2.5664 3.1094 6.1289 5.2344 10.082 6.0156 19.133 3.7031 37.324 11.23 53.484 22.125 3.3477 2.2344 7.3633 3.2461 11.367 2.8633 4.0078-0.38672 7.7578-2.1406 10.617-4.9727l11.25-11.203 20.062 19.969-11.203 11.109c-2.8516 2.8516-4.625 6.6055-5.0156 10.621-0.38672 4.0156 0.63281 8.0391 2.8828 11.387 10.848 16.062 18.344 34.152 22.031 53.18 0.78516 3.9531 2.9102 7.5117 6.0234 10.074 3.1094 2.5664 7.0078 3.9727 11.039 3.9883h16.055z" />
        <path fill="#01A601"
            d="m472.1 1068.6h-60.422c-7.7656 0-14.062-6.2969-14.062-14.062 0-7.7656 6.2969-14.062 14.062-14.062h60.422c7.7656 0 14.062 6.2969 14.062 14.062 0 7.7656-6.2969 14.062-14.062 14.062z" />
    </g>
</svg>