<?xml version="1.0" encoding="utf-8"?>
<svg id="Layer_1" viewBox="0 0 1200 1200" xmlns="http://www.w3.org/2000/svg">
    <path fill="#01A601" d="m933.33 1e3h266.67v200h-266.67z"/>
    <path fill="#01A601" d="m466.67 1e3h266.67v200h-266.67z"/>
    <path fill="#01A601" d="m0 1e3h266.67v200h-266.67z"/>
    <path fill="#01A601" d="m653.88 758.25-212.13-212.13-415.08 415.44 466.67-54.535 0.21484-0.21484c0.78125 3.1367 160.33-148.55 160.33-148.55z"/>
    <path fill="#01A601" d="m479.45 508.42 60.914-60.914 212.13 212.13-60.914 60.914z"/>
    <path fill="#01A601" d="m1156.1 43.934c-58.574-58.574-153.56-58.574-212.13 0l-365.85 365.87 212.13 212.13 365.85-365.85c58.574-58.602 58.574-153.57 0-212.15z"/>
</svg>
