<?xml version="1.0" encoding="utf-8"?>
<svg id="icon" xmlns="http://www.w3.org/2000/svg" viewBox="0 0 1200 1200">
  <path fill="#6b92dc" d="m961.82 545.82h-726c-8 0-14.547 6.5469-14.547 14.547v150.55c0 4.9102 2.3633 9.4531 6.5469 12.184l277.64 184.91v225.82c0 5.0898 2.7266 9.8164 7.0898 12.547 2.3633 1.4531 4.9102 2 7.4531 2 2.3633 0 4.7266-0.54688 6.9102-1.6367l157.82-83.637c4.7266-2.5469 7.8164-7.4531 7.8164-12.91v-142.18l277.64-184.91c4-2.7266 6.5469-7.2734 6.5469-12.184v-150.55c-0.35938-7.9961-6.9062-14.543-14.906-14.543zm-14.543 157.27-277.64 185.09c-4 2.7266-6.5469 7.2734-6.5469 12.184v141.09l-128.73 68.184v-209.28c0-4.9102-2.3633-9.4531-6.5469-12.184l-277.45-185.09v-52.18h696.91zm0-81.453h-696.91v-46.547h696.91z"/>
  <path fill="#eb5849" d="m260.73 363.09h-132.73c-8 0-14.547 6.5469-14.547 14.547s6.5469 14.547 14.547 14.547h132.73c8 0 14.547-6.5469 14.547-14.547 0.17969-8.1836-6.3633-14.547-14.547-14.547z"/>
  <path fill="#eb5849" d="m260.73 288.18h-132.73c-8 0-14.547 6.5469-14.547 14.547s6.5469 14.547 14.547 14.547h132.73c8 0 14.547-6.5469 14.547-14.547 0-8.0039-6.3633-14.547-14.547-14.547z"/>
  <path fill="#eb5849" d="m128 242.55h112c8 0 14.547-6.5469 14.547-14.547s-6.5469-14.547-14.547-14.547h-112c-8 0-14.547 6.5469-14.547 14.547s6.5469 14.547 14.547 14.547z"/>
  <path fill="#f6bc1b" d="m1148.4 174c0-1.2734-0.36328-2.3633-0.72656-3.6367-0.18359-0.36328-0.18359-0.72656-0.36328-1.0898 0-0.18359-0.18359-0.36328-0.36328-0.54688-0.54688-1.4531-1.457-2.9102-2.7266-4.1797l-2-2c-0.36328-0.36328-0.91016-0.91016-1.2734-1.2734-0.18359-0.18359-0.36328-0.36328-0.72656-0.54688l-67.453-67.637c-13.273-13.453-26-26.184-37.273-37.273-1.0938-1.2695-2.5469-2.1797-4.0039-2.7266-0.54297-0.36328-1.0898-0.36328-1.6367-0.54297-1.0898-0.36328-2.1836-0.54688-3.4531-0.72656-0.36328 0-0.72656-0.18359-1.0898-0.18359h-174.73c-18 0-32.547 14.547-32.547 32.547v112.36c-23.816 5.6367-42.727 24.363-48.184 48.184h-106.91c-6.7266-28.547-32.184-50-62.91-50-30.547 0-56.184 21.453-62.91 50h-105.09c-8.5469-20.547-27.453-35.637-50.184-39.09l0.003906-30.551c0-0.36328-0.18359-0.72656-0.18359-1.0898 0-1.2734-0.36328-2.3633-0.72656-3.6367-0.18359-0.36328-0.18359-0.72656-0.36328-1.0898 0-0.18359-0.18359-0.36328-0.36328-0.54688-0.72656-1.4531-1.6367-2.9102-2.9102-4.1836l-2-2c-0.36328-0.36328-0.91016-0.91016-1.2734-1.2734-0.18359-0.18359-0.36328-0.36328-0.72656-0.54688l-67.453-67.637c-13.273-13.453-26-26.184-37.273-37.273-0.72656-1.2656-1.9961-2.1758-3.4531-2.7227-0.54688-0.18359-1.0898-0.36328-1.6367-0.54688-1.0898-0.36328-2.1836-0.54688-3.4531-0.72656-0.36328 0-0.72656-0.18359-1.0898-0.18359l-174.73 0.003907c-18 0-32.547 14.547-32.547 32.547v350.18c0 18 14.547 32.727 32.547 32.727h265.27c18 0 32.547-14.727 32.547-32.727v-101.27c29.637-4.5469 52.363-28.91 54.547-59.09h100.55c5.6367 23.816 24.363 42.727 48.184 48.184v117.64l-20.184-20.363c-5.6367-5.6367-14.91-5.6367-20.727 0-5.8164 5.6367-5.6367 14.91 0 20.727l45.09 45.09c2.7266 2.7266 6.3633 4.5469 10.363 4.5469s7.6367-1.6367 10.363-4.3633l45.273-45.273c5.6367-5.6367 5.6367-14.91 0-20.727-5.6367-5.8164-14.91-5.6367-20.727 0l-20.188 20.539v-117.82c23.816-5.6367 42.727-24.363 48.184-48.184h106.91c5.6367 24.184 24.727 43.09 48.91 48.547-0.36328 1.2734-0.72656 2.3633-0.72656 3.6367v108.18c0 18 14.547 32.727 32.547 32.727h265.27c18 0 32.547-14.727 32.547-32.727l-0.007812-259.28c0.36328-0.36328 0.17969-0.72656 0.17969-1.0898zm-874.91-72.727c4 4 8.1836 8.1836 12.363 12.363l46.547 46.727h-55.273c-1.0898 0-1.8164-0.54688-2.5469-1.0898-0.54688-0.36328-1.0898-1.2734-1.0898-2.3633zm79.457 333.09c0 2-1.4531 3.6367-3.4531 3.6367h-265.27c-1.8164 0-3.4531-1.6367-3.4531-3.6367l-0.003907-350.18c0-1.8164 1.6367-3.4531 3.4531-3.4531h160.18v76.184c0 10 4.7266 19.637 12.184 25.273 5.6367 4.7266 13.09 7.2734 20.727 7.2734h75.816v18.547c-26 8.3633-45.09 32.547-45.09 61.273s19.09 52.91 45.09 61.273v103.81zm19.453-129.45c-19.637 0-35.453-15.816-35.453-35.453s15.816-35.453 35.453-35.453 35.453 15.816 35.453 35.453c0 19.633-15.816 35.453-35.453 35.453zm227.64-10.184c-19.637 0-35.453-15.816-35.453-35.453 0-19.637 15.816-35.453 35.453-35.453s35.453 15.816 35.453 35.453c0 20-15.637 35.453-35.453 35.453zm439.82-193.45c4 4 8.1836 8.1836 12.363 12.363l46.547 46.727h-55.273c-1.0898 0-1.8164-0.54688-2.5469-1.0898-0.54688-0.36328-1.0898-1.2734-1.0898-2.3633zm-242.73 158c0-19.637 15.816-35.453 35.453-35.453s35.453 15.816 35.453 35.453c0 19.816-15.637 35.453-35.453 35.453-19.453 0-35.453-15.816-35.453-35.453zm322.18 175.09c0 2-1.4531 3.6367-3.4531 3.6367h-265.27c-1.8164 0-3.4531-1.6367-3.4531-3.6367v-108.18c0-1.2734-0.36328-2.5469-0.72656-3.6367 28.91-6.3633 50.727-32.184 50.727-63.09 0-30.547-21.453-56.184-50-62.91l-0.003906-112.36c0-1.8164 1.6367-3.4531 3.4531-3.4531h160.18v76.184c0 10 4.7266 19.637 12.184 25.273 5.6367 4.7266 13.09 7.2734 20.727 7.2734h75.816v244.9z"/>
  <path fill="#01A601" d="m1060.5 363.09h-126.18c-8 0-14.547 6.5469-14.547 14.547s6.5469 14.547 14.547 14.547h126.18c8 0 14.547-6.5469 14.547-14.547 0.17969-8.1836-6.3672-14.547-14.547-14.547z"/>
  <path fill="#01A601" d="m919.82 302.73c0 8 6.5469 14.547 14.547 14.547h126.18c8 0 14.547-6.5469 14.547-14.547s-6.5469-14.547-14.547-14.547h-126.18c-8 0.003906-14.547 6.5469-14.547 14.547z"/>
  <path fill="#01A601" d="m934.36 242.55h72c8 0 14.547-6.5469 14.547-14.547s-6.5469-14.547-14.547-14.547h-72c-8 0-14.547 6.5469-14.547 14.547s6.5469 14.547 14.547 14.547z"/>
  <path fill="#7f5dec" d="m716.36 790.55c26.363 0 48-21.453 48-48s-21.453-48-48-48c-26.363 0-48 21.453-48 48 0 26.543 21.453 48 48 48zm0-66.73c10.363 0 18.727 8.3633 18.727 18.727s-8.3633 18.727-18.727 18.727-18.727-8.3633-18.727-18.727c0-10.359 8.3633-18.727 18.727-18.727z"/>
</svg>