<?xml version="1.0" encoding="utf-8"?>
<svg id="colproc" xmlns="http://www.w3.org/2000/svg" viewBox="0 0 261.000000 260.000000">
    <g transform="translate(0.000000,260.000000) scale(0.100000,-0.100000)"
    fill="#000000" stroke="none">
        <path fill="#01A601" d="M675 2584 c-16 -2 -66 -9 -110 -15 -257 -34 -473 -139 -521 -255 -12
        -28 -14 -191 -14 -1006 0 -970 0 -972 21 -1016 146 -301 1160 -357 1507 -83
        77 61 92 102 92 249 l0 122 120 0 c108 0 120 -2 130 -19 5 -11 10 -84 10 -166
        0 -220 14 -235 213 -235 l125 0 26 -44 c58 -99 189 -114 268 -30 53 57 62 125
        25 194 -62 117 -231 118 -295 2 l-23 -42 -113 0 c-151 0 -146 -7 -146 186 0
        165 -6 185 -59 221 -31 21 -45 23 -157 23 l-124 0 0 300 0 300 299 0 300 0 23
        -42 c45 -82 143 -110 228 -65 119 63 116 238 -6 297 -81 40 -174 12 -220 -66
        l-26 -44 -299 0 -299 0 0 214 0 214 136 4 136 3 34 37 34 38 0 223 c0 160 3
        226 12 235 16 16 258 17 258 0 0 -19 50 -77 80 -93 42 -22 128 -19 168 5 37
        23 69 71 78 117 22 117 -93 224 -206 193 -48 -13 -108 -63 -116 -96 -6 -24 -8
        -24 -131 -24 -135 0 -164 -8 -202 -56 -20 -25 -21 -39 -21 -245 0 -274 9 -259
        -150 -259 l-110 0 0 212 c0 195 -2 215 -21 256 -52 106 -231 194 -484 238 -86
        15 -407 27 -470 18z m430 -99 c128 -20 203 -40 294 -82 94 -42 134 -72 155
        -117 15 -31 15 -39 3 -69 -38 -89 -217 -170 -462 -208 -120 -19 -419 -16 -540
        5 -347 62 -517 194 -400 311 75 75 264 142 470 168 85 11 388 6 480 -8z m1370
        -50 c50 -49 24 -130 -46 -141 -81 -13 -128 89 -65 142 36 31 80 31 111 -1z
        m-2314 -376 c39 -27 142 -73 209 -92 150 -43 230 -52 465 -52 248 0 354 13
        503 61 78 26 187 77 197 94 3 5 13 10 21 10 20 0 21 -454 0 -503 -37 -89 -217
        -170 -461 -208 -120 -19 -419 -16 -540 5 -193 35 -347 96 -405 163 l-30 34 0
        254 c0 140 3 255 6 255 3 0 19 -9 35 -21z m1393 -1086 c-30 -62 -131 -121
        -277 -162 -237 -67 -624 -69 -862 -5 -93 26 -217 87 -258 128 l-37 37 0 234
        c0 129 3 235 6 235 3 0 19 -9 35 -21 86 -61 273 -118 462 -140 141 -16 443 -6
        567 20 151 30 283 81 350 133 l25 20 3 -222 c2 -191 0 -226 -14 -257z m923
        395 c45 -42 23 -119 -39 -141 -50 -18 -117 47 -104 99 16 63 96 86 143 42z
        m-2212 -601 c248 -104 675 -126 985 -51 118 28 204 62 266 103 25 17 47 31 50
        31 2 0 4 -108 4 -241 0 -267 -4 -288 -64 -334 -49 -37 -144 -81 -226 -104
        -241 -67 -626 -69 -865 -5 -93 26 -217 87 -258 128 l-37 37 0 259 0 259 43
        -28 c23 -16 69 -40 102 -54z m2213 -510 c50 -46 14 -137 -55 -137 -48 0 -70
        14 -83 54 -14 44 3 84 45 102 35 15 61 10 93 -19z"/>
        <path fill="#01A601" d="M2380 2375 l0 -45 40 0 40 0 0 45 0 45 -40 0 -40 0 0 -45z"/>
        <path fill="#01A601" d="M2380 1310 l0 -40 40 0 40 0 0 40 0 40 -40 0 -40 0 0 -40z"/>
        <path fill="#01A601" d="M2380 200 l0 -40 40 0 40 0 0 40 0 40 -40 0 -40 0 0 -40z"/>
    </g>
</svg>
