<?xml version="1.0" encoding="utf-8"?>
<svg id="colproc" xmlns="http://www.w3.org/2000/svg" viewBox="0 0 500 450" >
<g transform="translate(0.000000,512.000000) scale(0.100000,-0.100000)"
fill="#000000" stroke="none">
<path fill="#01A601" d="M761 3643 c103 -637 188 -1159 188 -1160 1 -2 507 -3 1126 -3 l1125
0 0 918 c0 786 2 926 15 969 19 63 80 134 143 165 46 23 52 23 469 28 l423 5
32 33 c28 28 33 39 33 82 0 43 -5 54 -33 82 l-32 33 -1838 3 -1838 2 187
-1157z m2199 917 l0 -80 -303 0 -302 0 -107 -107 -107 -108 34 -70 c37 -77 65
-196 65 -275 0 -133 -57 -293 -145 -403 -111 -140 -313 -237 -495 -237 -182 0
-384 97 -495 237 -160 202 -188 457 -76 687 174 357 628 466 951 228 l55 -40
126 124 126 124 336 0 337 0 0 -80z m0 -320 l0 -80 -240 0 -240 0 0 80 0 80
240 0 240 0 0 -80z m0 -320 l0 -80 -240 0 -240 0 0 80 0 80 240 0 240 0 0 -80z
m0 -320 l0 -80 -240 0 -240 0 0 80 0 80 240 0 240 0 0 -80z m-1520 -560 l0
-80 -80 0 -80 0 0 80 0 80 80 0 80 0 0 -80z m1520 0 l0 -80 -680 0 -680 0 0
80 0 80 680 0 680 0 0 -80z m-160 -320 l0 -80 -840 0 -840 0 0 80 0 80 840 0
840 0 0 -80z"/>
<path fill="#01A601" d="M1449 4375 c-52 -19 -119 -54 -119 -63 0 -4 43 -50 95 -102 l95 -95
0 138 c0 153 2 149 -71 122z"/>
<path fill="#01A601" d="M1680 3920 l0 -472 33 6 c64 13 158 66 218 123 103 98 157 241 146
383 -5 62 -41 180 -55 180 -3 0 -32 -26 -64 -57 l-58 -58 -57 58 -58 57 69 69
68 68 -34 26 c-41 31 -132 74 -176 83 l-32 7 0 -473z"/>
<path fill="#01A601" d="M1175 4140 c-98 -193 -60 -416 96 -565 58 -55 153 -108 217 -121 l32
-6 0 218 0 219 -153 153 c-84 83 -155 152 -159 152 -4 0 -19 -22 -33 -50z"/>
<path fill="#01A601" d="M4295 4417 c-15 -9 -135 -13 -442 -17 l-423 -5 -32 -33 c-28 -28 -33
-39 -33 -82 0 -43 5 -54 33 -82 l32 -33 445 -3 445 -3 0 136 c0 74 -1 135 -2
135 -2 0 -12 -6 -23 -13z"/>
<path fill="#01A601" d="M3360 3254 l0 -774 409 0 409 0 11 48 c16 72 341 1435 347 1455 5 16
-26 17 -548 17 -436 1 -561 4 -590 14 l-38 14 0 -774z"/>
<path fill="#01A601" d="M825 2295 c-16 -15 -25 -36 -25 -55 0 -19 9 -40 25 -55 l24 -25 1711
0 1711 0 24 25 c33 32 33 78 0 110 l-24 25 -1711 0 -1711 0 -24 -25z"/>
<path fill="#01A601" d="M960 1942 l0 -57 711 -434 c390 -239 714 -442 720 -452 5 -10 9 -154
9 -333 l0 -314 158 52 157 53 5 269 c3 148 8 274 12 279 4 6 326 206 717 445
l711 434 0 58 0 58 -1600 0 -1600 0 0 -58z"/>
</g>
</svg>
