<?xml version="1.0" encoding="utf-8"?>
<svg id="colproc" xmlns="http://www.w3.org/2000/svg" viewBox="0 0 500 500">
<g transform="translate(0.000000,500.000000) scale(0.100000,-0.100000)" fill="#000000" stroke="none">
    <path fill="#01A601" d="M2374 4675 c-66 -34 -86 -130 -39 -191 74 -97 225 -41 225 84 0 89
    -104 149 -186 107z"/>
    <path fill="#01A601" d="M3302 4679 c-18 -6 -55 -31 -81 -57 -155 -150 -56 -402 158 -402 93
    0 162 39 209 119 22 38 27 58 27 116 0 58 -5 78 -27 116 -27 46 -79 89 -131
    108 -34 13 -110 13 -155 0z"/>
    <path fill="#01A601" d="M1675 4236 c-89 -41 -135 -115 -135 -213 1 -253 339 -328 446 -98 93
    199 -112 404 -311 311z"/>
    <path fill="#01A601" d="M3222 3900 c-93 -57 -68 -201 38 -230 108 -29 201 98 138 190 -42 62
    -113 78 -176 40z"/>
    <path fill="#01A601" d="M2692 3771 c-81 -21 -152 -96 -171 -182 -11 -47 -5 -115 11 -125 10
    -6 440 -5 446 1 3 3 7 27 10 54 9 95 -47 195 -133 235 -42 20 -118 28 -163 17z"/>
    <path fill="#01A601" d="M650 3110 l0 -260 383 0 c330 0 386 -2 405 -16 27 -19 29 -50 3 -64
    -13 -6 -151 -10 -380 -10 -199 0 -361 -2 -361 -5 0 -2 41 -58 90 -122 50 -65
    193 -253 319 -418 126 -165 256 -336 290 -380 33 -44 112 -147 175 -230 63
    -82 156 -204 207 -270 50 -66 137 -180 192 -252 l99 -133 472 0 471 1 46 62
    c26 34 167 220 314 412 147 193 378 496 514 674 135 178 303 398 374 490 l128
    166 -1022 5 -1022 5 -14 22 c-13 19 -12 24 6 42 21 21 22 21 1061 21 l1040 0
    0 260 0 260 -1895 0 -1895 0 0 -260z"/>
    <path fill="#01A601" d="M2100 469 c0 -309 3 -390 13 -387 33 13 383 123 612 193 66 21 152
    47 190 59 l70 23 3 251 2 252 -445 0 -445 0 0 -391z"/>
</g>
</svg>
